<svg width="32" height="29" viewBox="0 0 32 29" fill="none" xmlns="http://www.w3.org/2000/svg">
<path d="M30 12.4301H6.28L13.54 3.39943C13.8795 2.97645 14.0428 2.43113 13.994 1.88344C13.9453 1.33575 13.6884 0.830549 13.28 0.47898C12.8716 0.12741 12.345 -0.0417319 11.8162 0.00876447C11.2873 0.0592608 10.7995 0.325259 10.46 0.748241L0.46 13.1757C0.392721 13.2745 0.332559 13.3784 0.28 13.4864C0.28 13.5899 0.28 13.6521 0.14 13.7556C0.0493473 13.9931 0.00188224 14.2459 0 14.5013C0.00188224 14.7567 0.0493473 15.0095 0.14 15.2469C0.14 15.3505 0.14 15.4126 0.28 15.5162C0.332559 15.6242 0.392721 15.728 0.46 15.8269L10.46 28.2543C10.648 28.4882 10.8835 28.6762 11.1497 28.8051C11.4159 28.9339 11.7062 29.0005 12 29C12.4673 29.0009 12.9202 28.8324 13.28 28.5236C13.4825 28.3497 13.6499 28.1362 13.7726 27.8952C13.8953 27.6542 13.9709 27.3905 13.9951 27.1192C14.0192 26.848 13.9915 26.5744 13.9134 26.3143C13.8353 26.0541 13.7084 25.8125 13.54 25.6032L6.28 16.5725H30C30.5304 16.5725 31.0391 16.3543 31.4142 15.9659C31.7893 15.5775 32 15.0506 32 14.5013C32 13.952 31.7893 13.4251 31.4142 13.0367C31.0391 12.6483 30.5304 12.4301 30 12.4301Z" fill="black"/>
</svg>
