<svg width="87" height="96" fill="none" xmlns="http://www.w3.org/2000/svg"><path d="M72.5 67.855c-3.673 0-6.96 1.446-9.473 3.711l-34.462-20c.242-1.108.435-2.217.435-3.373 0-1.157-.193-2.265-.435-3.374L62.64 25.012c2.61 2.41 6.042 3.904 9.86 3.904 8.023 0 14.5-6.458 14.5-14.458S80.523 0 72.5 0 58 6.458 58 14.458c0 1.156.193 2.265.435 3.373L24.36 37.64c-2.61-2.41-6.042-3.904-9.86-3.904-8.023 0-14.5 6.458-14.5 14.458S6.477 62.65 14.5 62.65c3.818 0 7.25-1.494 9.86-3.904l34.413 20.048a13.562 13.562 0 00-.386 3.133C58.387 89.687 64.718 96 72.5 96c7.782 0 14.113-6.313 14.113-14.072 0-7.76-6.331-14.073-14.113-14.073z" fill="#F76137"/></svg>