<svg width="127" height="123" fill="none" xmlns="http://www.w3.org/2000/svg"><path d="M32.152 62.31c15.674 0 28.133 12.542 28.133 28.322 0 15.779-12.46 28.322-28.133 28.322-15.674 0-28.133-12.543-28.133-28.322 0-15.78 12.459-28.323 28.133-28.323zm0-4.047C14.468 58.263 0 72.83 0 90.632S14.468 123 32.152 123c17.683 0 32.152-14.566 32.152-32.368 0-17.803-14.469-32.369-32.152-32.369z" fill="#333"/><path d="M75.557 4.855c25.078 0 46.62 21.687 46.62 46.934 0 25.248-21.542 46.935-46.62 46.935-25.079 0-46.62-21.687-46.62-46.935 0-25.247 21.541-46.934 46.62-46.934zm0-4.855C47.263 0 24.114 23.305 24.114 51.79c0 28.484 23.15 51.789 51.443 51.789 28.294 0 51.443-23.305 51.443-51.79C127 23.305 103.851 0 75.557 0z" fill="#333"/><path d="M51.443 65.957v10.115H61.49L91.124 46.24 81.076 36.124 51.443 65.957zm47.45-27.54a2.686 2.686 0 00.784-1.901 2.701 2.701 0 00-.783-1.902l-6.27-6.312a2.67 2.67 0 00-1.889-.789 2.654 2.654 0 00-1.889.789l-4.903 4.936 10.048 10.115 4.903-4.936z" fill="#333"/></svg>