<svg width="135" height="146" fill="none" xmlns="http://www.w3.org/2000/svg"><path d="M52.412 41.063C23.47 41.063 0 64.556 0 93.53 0 122.506 23.47 146 52.412 146a8.728 8.728 0 008.736-8.745c0-2.273-.874-4.314-2.272-5.888-1.339-1.516-2.212-3.556-2.212-5.772a8.728 8.728 0 018.735-8.744h10.308c16.073 0 29.118-13.059 29.118-29.15 0-25.768-23.47-46.638-52.413-46.638zM20.382 93.53a8.728 8.728 0 01-8.735-8.745 8.728 8.728 0 018.736-8.744 8.728 8.728 0 018.735 8.745 8.728 8.728 0 01-8.735 8.744zm17.471-23.32a8.728 8.728 0 01-8.735-8.744 8.728 8.728 0 018.735-8.745 8.728 8.728 0 018.736 8.745 8.728 8.728 0 01-8.736 8.745zm29.118 0a8.728 8.728 0 01-8.735-8.744 8.728 8.728 0 018.735-8.745 8.728 8.728 0 018.736 8.745 8.728 8.728 0 01-8.736 8.745zm17.471 23.32a8.728 8.728 0 01-8.735-8.745 8.728 8.728 0 018.735-8.744 8.728 8.728 0 018.735 8.745 8.728 8.728 0 01-8.735 8.744zm43.303-19.167s3.483 1.122 5.862-1.464c2.209-2.364.943-5.368.943-5.368-1.345-2.652-15.464-24.99-24.7-33.203-4.222-3.697-16.562-8.74-20.944-4.408-4.169 4.11 1.044 17.35 4.7 20.926 9.075 8.874 31.434 22.293 34.139 23.517zM65.497 1.213c6.936 10.271 14.87 6.139 20.331 13.805 2.885 4.028 2.856 9.686-1.015 13.527-2.85 2.814-11.06 3.706-14.986-.435-6.397-6.773-7.018-17.42-4.33-26.898z" fill="#4F4F4F"/><path d="M65.497 1.212c6.936 10.272 14.87 6.14 20.331 13.806 2.885 4.028 2.856 9.686-1.015 13.527-2.85 2.814-11.06 3.706-14.986-.435-6.397-6.773-7.018-17.42-4.33-26.898z" fill="#F76137"/><ellipse cx="19.142" cy="84.862" rx="10.027" ry="10.037" fill="#2B64BE"/><ellipse cx="37.372" cy="61.138" rx="10.027" ry="10.037" fill="#F76137"/><ellipse cx="66.541" cy="61.138" rx="10.027" ry="10.037" fill="#ECF1FD"/><ellipse cx="84.771" cy="84.862" rx="10.027" ry="10.037" fill="#95BFE6"/></svg>