<svg width="119" height="159" fill="none" xmlns="http://www.w3.org/2000/svg"><path fill-rule="evenodd" clip-rule="evenodd" d="M1.774 63.988v70.226h109.96v-2.644H6.669V117.3l105.065.025v-2.615H6.669v-14.305h105.065v-2.59H6.669V83.508l105.065.028V80.89l-105.065.025-.063-14.305 105.119.028v-2.647s-77.549.006-109.96 0" fill="#4F4F4F"/><path fill-rule="evenodd" clip-rule="evenodd" d="M31.337 153.685c3.141 2.346 6.089 2.615 9.056 1.262 3.134-1.428 5.664-4.192 5.57-8.192-.093-4.001-.835-10.293-1.633-15.358-1.516.175-3.057.317-4.553.37-12.45.444-24.828-12.748-19.982-30.063 1.979-7.1 6.165-12.715 11.67-16.827 2.098-1.568 5.162-4.6 5.162-4.6s-.344-4.47-.752-7.065c-1.182-7.43-.218-14.763 4.009-21.18.605-.923 1.2-1.865 1.903-2.695 2.25-2.645 3.848-2.53 5.434.56 6.818 13.26 4.492 26.787-5.881 37.066a53.468 53.468 0 01-1.951 1.8l1.758 11.087c.493.084.878.192 1.259.199 10.48.267 16.648 10.437 12.72 20.999-1.499 4.037-4.108 7.178-7.687 9.115-1.302.706-1.725.851-1.725.851.555 3.975 1.381 10.435 1.64 14.589.612 6.538-4.475 12.062-10.966 11.597-2.336-.165-4.76-1.004-6.858-2.145-3.74-2.044-4.888-6.694-3.049-10.782 1.186-2.661 3.478-4.017 6.103-3.613 2.206.336 4.247 2.335 4.723 4.628.567 2.756-.515 5.302-2.951 6.811-.822.503-1.707.906-3.02 1.586h.001zm12.685-24.282c-.956-6.34-1.97-12.482-2.762-18.65-.273-2.121-1.14-2.362-2.742-1.886-4.572 1.353-6.466 7.001-3.785 11.537.747 1.255 1.754 2.317 2.812 3.688-4.18-1.334-7.226-5.39-7.354-10.397-.161-6.952 3.817-10.87 9.492-13.422-.505-3.323-1.01-6.626-1.6-10.44-5.714 4.534-10.616 9.231-13.672 15.883-2.894 6.326-2.65 12.299 1.761 17.667 4.723 5.763 10.713 7.552 17.842 6.024l.008-.004zM37.945 79.04c4.952-4.485 9.175-8.87 10.677-15.42.294-1.274.073-2.775-.21-4.094-.606-2.787-2.654-3.73-4.944-2.293-.869.546-1.704 1.381-2.236 2.293-3.4 5.837-3.863 12.275-3.296 19.51l.01.004zm4.415 29.535c1.012 6.813 1.983 13.709 2.976 20.377 4.974-1.544 7.232-6.624 6.225-12.92-.85-5.329-3.73-7.804-9.201-7.455" fill="#4F4F4F"/><path d="M108.845 7.664l-2.413.507-32.496 6.082-1.65.258v27.182a7.916 7.916 0 00-4.061-1.143c-4.462 0-8.124 3.655-8.124 8.11 0 4.454 3.662 8.11 8.124 8.11 4.462 0 8.124-3.656 8.124-8.11V25.976l28.434-5.32v14.95a7.992 7.992 0 00-4.062-1.139c-4.462 0-8.124 3.656-8.124 8.11 0 4.455 3.662 8.11 8.124 8.11 4.462 0 8.124-3.655 8.124-8.11V7.664zm-4.062 4.886v4.055l-28.434 5.32V17.87l28.434-5.32zm-4.062 25.972a4.029 4.029 0 014.062 4.055 4.029 4.029 0 01-4.062 4.055 4.03 4.03 0 01-4.062-4.055 4.03 4.03 0 014.062-4.055zm-32.496 6.083a4.03 4.03 0 014.062 4.055 4.03 4.03 0 01-4.062 4.055 4.03 4.03 0 01-4.062-4.055 4.03 4.03 0 014.062-4.055z" fill="#2B64BE"/></svg>