<svg width="147" height="88" fill="none" xmlns="http://www.w3.org/2000/svg"><path d="M16.16 0c-2.293 0-4.28 1.116-6.083 2.661-1.807 1.546-3.47 3.623-4.943 6.275C2.184 14.247 0 21.696 0 30.988c0 4.764 1.104 9.673 3.328 13.59.486.858 1.283 1.427 1.9 2.188-1.651 2.02-4.373 5.797-4.373 5.797l4.377 4.377s3.017-4.158 4.942-6.463c1.223.523 2.376 1.234 3.803 1.234 5.216 0 10.657-2.28 15.682-5.134 1.615 1.238 3.434 2.093 5.323 2.093 6.25 0 11.002-3.672 14.354-6.938a54.556 54.556 0 002.375-2.473c-.012.833-.036 1.594.192 2.567.176.736.38 1.652 1.14 2.473.761.818 2.127 1.329 3.23 1.329 2.221 0 3.505-1.022 4.85-1.995 1.34-.974 2.615-2.139 3.99-3.234C67.878 38.212 70.828 36.5 73 36.5v-6.083c-4.824 0-8.59 2.853-11.598 5.228a147.517 147.517 0 01-3.705 2.85v-.38c.034-1.104.201-2.342 0-3.705a4.959 4.959 0 00-.952-2.28c-.63-.892-2.044-1.713-3.23-1.713-1.712 0-2.342.736-2.947 1.235-.609.498-1.059 1.01-1.615 1.615-1.117 1.213-2.449 2.676-3.9 4.088-2.555 2.494-5.56 4.386-8.839 4.848 2.175-1.746 4.362-3.483 5.895-5.417 2.02-2.543 3.516-5.134 3.516-8.176 0-1.71-.213-4.052-1.52-6.272-1.309-2.22-4.122-4.088-7.605-4.088a11.31 11.31 0 00-9.22 4.754c-2.068 2.911-2.947 6.64-2.947 11.023 0 2.984.679 5.454 1.616 7.604-4.229 2.227-8.612 3.994-11.976 3.994 5.144-7.71 10.36-18.213 10.36-30.989 0-2.646.025-5.773-.854-8.647-.441-1.439-1.141-2.899-2.376-4.088C19.863.715 18.037 0 16.157 0h.003zm0 6.083c.548 0 .57.107.76.286.19.177.414.618.664 1.424.486 1.606.666 4.313.666 6.843 0 10.777-4.611 20.212-9.22 27.284-.106-.182-.273-.191-.38-.383-1.581-2.768-2.567-6.795-2.567-10.549 0-8.355 1.996-14.83 4.374-19.107 1.186-2.139 2.41-3.705 3.516-4.657 1.104-.952 2.044-1.14 2.187-1.14zm20.34 18.25c1.688 0 1.938.405 2.376 1.141.44.736.666 2.102.666 3.136 0 .76-.64 2.53-2.187 4.468-1.342 1.688-3.386 3.434-5.606 5.134-.535-1.225-1.332-2.117-1.332-4.182 0-3.528.748-6.108 1.806-7.604 1.056-1.5 2.245-2.093 4.277-2.093z" fill="#2B64BE"/><path fill-rule="evenodd" clip-rule="evenodd" d="M81.137 49.74a4.433 4.433 0 01-1.423-1.454l-7.22-12.013a4.432 4.432 0 014.252-6.697l13.942 1.432c.685.07 1.344.3 1.925.67l41.229 26.195a8.869 8.869 0 012.728 12.233l-1.97 3.1a8.865 8.865 0 01-12.234 2.728L81.137 49.74zm9.1-14.322l41.228 26.195a4.433 4.433 0 011.364 6.117l-1.97 3.1a4.43 4.43 0 01-6.116 1.364L83.513 46l-7.219-12.013 13.942 1.432z" fill="#4F4F4F"/><path fill-rule="evenodd" clip-rule="evenodd" d="M134.157 56.527a2.17 2.17 0 00.291-1.636 2.162 2.162 0 00-.959-1.357l-17.125-10.791a2.16 2.16 0 01-.667-2.994 2.19 2.19 0 013.013-.671l17.118 10.801a6.475 6.475 0 012.926 6.605 6.485 6.485 0 01-.926 2.367l-.966 1.515a2.187 2.187 0 01-3.01.674 2.158 2.158 0 01-.669-2.991l.97-1.517.004-.005z" fill="#4F4F4F"/><path d="M143.158 70.858a4.665 4.665 0 012.008 2.899 4.665 4.665 0 01-.586 3.477l-.103.165a4.494 4.494 0 01-2.741 1.997 4.49 4.49 0 01-3.353-.496l-7.385-4.351 5.134-8.246 7.026 4.555z" fill="#4F4F4F"/></svg>