<svg width="149" height="150" fill="none" xmlns="http://www.w3.org/2000/svg"><path d="M57 0C25.55 0 0 25.63 0 57.178s25.55 57.178 57 57.178 57-25.63 57-57.178S88.45 0 57 0zm0 3.574c13.637 0 26.031 5.156 35.475 13.587H21.521A53.04 53.04 0 0156.996 3.574H57zm-34.14 17.16h68.283L57.003 89.21 22.862 20.734zm-5.753.858v71.176A53.396 53.396 0 013.563 57.182c0-13.68 5.14-26.113 13.544-35.587v-.003zm79.786 0a53.397 53.397 0 0113.544 35.586c0 13.68-5.14 26.113-13.544 35.587V21.591zM20.67 24.308l34.549 69.314h-34.55V24.308zm72.66 0v69.314H58.781l34.567-69.314h-.018zM21.525 97.196h70.954a53.074 53.074 0 01-35.475 13.587 53.068 53.068 0 01-35.476-13.587h-.003z" fill="#4F4F4F"/><path d="M100.675 40.105v9.771h9.741l28.727-28.817-9.74-9.77-28.728 28.816zm46-26.602a2.59 2.59 0 00.562-2.831 2.587 2.587 0 00-.562-.843l-6.078-6.097a2.575 2.575 0 00-1.831-.762 2.579 2.579 0 00-1.831.762L132.182 8.5l9.74 9.771 4.753-4.768z" fill="#4F4F4F"/><path d="M100.675 49.876v-9.77l28.728-28.818 9.74 9.77-28.727 28.818h-9.741z" fill="#2B64BE"/><path d="M53.956 78.014l74.633 60.254c1.457 1.177 2.483.611 2.282-1.253l-.093-.869-2.937.319-.119-1.112 2.936-.318-.235-2.176-2.936.319-.12-1.111 2.937-.318-.235-2.177-2.936.318-.12-1.11 2.936-.318-.234-2.176-5.52.599-.12-1.112 5.52-.598-.254-2.359-2.936.319-.12-1.113 2.936-.318-.235-2.176-2.936.319-.12-1.111 2.936-.318-.234-2.177-2.936.318-.12-1.111 2.936-.318-.235-2.176-5.519.599-.12-1.109 5.52-.599-.255-2.361-2.936.319-.119-1.111 2.936-.318-.235-2.177-2.936.318-.12-1.111 2.936-.318-.234-2.175-2.936.319-.12-1.113 2.936-.319-.235-2.176-5.52.598-.119-1.109 5.52-.598-.255-2.361-2.936.318-.12-1.11 2.936-.318-.234-2.176-2.936.318-.12-1.112 2.936-.319-.235-2.175-2.936.318-.119-1.11 2.936-.319-.235-2.176-5.52.598-.119-1.11 5.519-.599-.254-2.36-2.936.32-.12-1.112 2.936-.319-.234-2.175-2.936.318-.12-1.111 2.936-.319-.235-2.175-2.936.318-.119-1.109 2.936-.318-.235-2.178-5.52.598-.12-1.111 5.52-.599-.043-.4a3.428 3.428 0 00-1.25-2.291 3.407 3.407 0 00-2.498-.74l-65.367 7.091c-1.86.202-2.19 1.331-.732 2.506zm52.179 7.752a3.405 3.405 0 012.496.737 3.427 3.427 0 011.252 2.288l1.305 12.11c.201 1.866-.827 2.428-2.283 1.254l-15.57-12.572c-1.456-1.176-1.127-2.305.733-2.507l12.068-1.309-.001-.001z" fill="#95BFE6"/></svg>