<svg width="117" height="104" fill="none" xmlns="http://www.w3.org/2000/svg"><path d="M110.5 13H104V6.5c0-3.575-2.925-6.5-6.5-6.5h-91C2.925 0 0 2.925 0 6.5v78C0 88.075 2.925 91 6.5 91H13v6.5c0 3.575 2.925 6.5 6.5 6.5h91c3.575 0 6.5-2.925 6.5-6.5v-78c0-3.575-2.925-6.5-6.5-6.5zM13 19.5v67H4.5v-2.013L4.513 3v1.5H99.5V13h-80c-3.575 0-6.5 2.925-6.5 6.5zM112 99H18v-.5l-.5-80H112V99z" fill="#4F4F4F"/><path d="M97.5 35.75a9.753 9.753 0 11-19.507-.007 9.753 9.753 0 0119.507.007z" fill="#F76137"/><path d="M104 91H26V78l22.75-39 26 32.5h6.5L104 52v39z" fill="#EED0BF"/></svg>