<svg width="32" height="29" fill="none" xmlns="http://www.w3.org/2000/svg"><path d="M30 12.43H6.28l7.26-9.03c.34-.424.503-.969.454-1.517A2.097 2.097 0 0013.28.48a1.956 1.956 0 00-1.464-.47 1.982 1.982 0 00-1.356.74l-10 12.427a2.48 2.48 0 00-.18.31c0 .104 0 .166-.14.27a2.15 2.15 0 00-.14.745c.002.256.05.508.14.746 0 .104 0 .166.14.27.053.107.113.211.18.31l10 12.427c.188.234.423.422.69.551a1.959 1.959 0 002.13-.282c.203-.173.37-.387.493-.628a2.128 2.128 0 00-.233-2.292l-7.26-9.03H30c.53 0 1.04-.219 1.414-.607A2.11 2.11 0 0032 14.5c0-.549-.21-1.076-.586-1.464A1.966 1.966 0 0030 12.43z" fill="#000"/></svg>