<svg width="87" height="96" viewBox="0 0 87 96" fill="none" xmlns="http://www.w3.org/2000/svg">
<path d="M72.5 67.8554C68.8267 67.8554 65.54 69.3012 63.0267 71.5663L28.565 51.5663C28.8067 50.4578 29 49.3494 29 48.1928C29 47.0361 28.8067 45.9277 28.565 44.8193L62.64 25.012C65.25 27.4217 68.6817 28.9157 72.5 28.9157C80.5233 28.9157 87 22.4578 87 14.4578C87 6.45783 80.5233 0 72.5 0C64.4767 0 58 6.45783 58 14.4578C58 15.6145 58.1933 16.7229 58.435 17.8313L24.36 37.6386C21.75 35.2289 18.3183 33.7349 14.5 33.7349C6.47667 33.7349 0 40.1928 0 48.1928C0 56.1928 6.47667 62.6506 14.5 62.6506C18.3183 62.6506 21.75 61.1566 24.36 58.747L58.7733 78.7952C58.5317 79.8072 58.3867 80.8675 58.3867 81.9277C58.3867 89.6868 64.7183 96 72.5 96C80.2817 96 86.6133 89.6868 86.6133 81.9277C86.6133 74.1687 80.2817 67.8554 72.5 67.8554Z" fill="#F76137"/>
</svg>
