<svg width="127" height="123" viewBox="0 0 127 123" fill="none" xmlns="http://www.w3.org/2000/svg">
<path d="M32.1519 62.3092C47.8259 62.3092 60.2848 74.852 60.2848 90.6316C60.2848 106.411 47.8259 118.954 32.1519 118.954C16.4778 118.954 4.01899 106.411 4.01899 90.6316C4.01899 74.852 16.4778 62.3092 32.1519 62.3092ZM32.1519 58.2632C14.4684 58.2632 0 72.829 0 90.6316C0 108.434 14.4684 123 32.1519 123C49.8354 123 64.3038 108.434 64.3038 90.6316C64.3038 72.829 49.8354 58.2632 32.1519 58.2632Z" fill="#333333"/>
<path d="M75.5569 4.85526C100.635 4.85526 122.177 26.5421 122.177 51.7895C122.177 77.0368 100.635 98.7237 75.5569 98.7237C50.4784 98.7237 28.9367 77.0368 28.9367 51.7895C28.9367 26.5421 50.4784 4.85526 75.5569 4.85526ZM75.5569 0C47.2633 0 24.1139 23.3053 24.1139 51.7895C24.1139 80.2737 47.2633 103.579 75.5569 103.579C103.851 103.579 127 80.2737 127 51.7895C127 23.3053 103.851 0 75.5569 0Z" fill="#333333"/>
<path d="M51.443 65.9573V76.0724H61.4905L91.1238 46.2395L81.0763 36.1244L51.443 65.9573ZM98.8938 38.4171C99.1422 38.1676 99.3393 37.8712 99.4737 37.5449C99.6082 37.2186 99.6774 36.8688 99.6774 36.5155C99.6774 36.1622 99.6082 35.8124 99.4737 35.4861C99.3393 35.1598 99.1422 34.8634 98.8938 34.6139L92.6242 28.302C92.3763 28.052 92.0819 27.8536 91.7578 27.7182C91.4337 27.5829 91.0862 27.5132 90.7353 27.5132C90.3844 27.5132 90.0369 27.5829 89.7128 27.7182C89.3887 27.8536 89.0942 28.052 88.8464 28.302L83.9432 33.2382L93.9907 43.3533L98.8938 38.4171Z" fill="#333333"/>
</svg>
