<svg width="117" height="104" viewBox="0 0 117 104" fill="none" xmlns="http://www.w3.org/2000/svg">
<path d="M110.5 13H104V6.5C104 2.925 101.075 0 97.5 0H6.5C2.925 0 0 2.925 0 6.5V84.5C0 88.075 2.925 91 6.5 91H13V97.5C13 101.075 15.925 104 19.5 104H110.5C114.075 104 117 101.075 117 97.5V19.5C117 15.925 114.075 13 110.5 13ZM13 19.5V86.5H4.5V84.487L4.513 3V4.5H97.487H99.5V13H19.5C15.925 13 13 15.925 13 19.5ZM112 99H18V98.5L17.5 18.5H112V99Z" fill="#4F4F4F"/>
<path d="M97.5002 35.7502C97.4993 38.3369 96.4709 40.8173 94.6412 42.6458C92.8115 44.4743 90.3304 45.501 87.7437 45.5002C85.1569 45.4993 82.6765 44.4709 80.848 42.6412C79.0195 40.8115 77.9928 38.3304 77.9937 35.7437C77.9945 33.1569 79.0229 30.6765 80.8526 28.848C82.6823 27.0195 85.1634 25.9928 87.7502 25.9937C90.3369 25.9945 92.8173 27.0229 94.6458 28.8526C96.4743 30.6823 97.501 33.1634 97.5002 35.7502Z" fill="#F76137"/>
<path d="M104 91H26V78L48.75 39L74.75 71.5H81.25L104 52V91Z" fill="#EED0BF"/>
</svg>
