<svg width="119" height="159" viewBox="0 0 119 159" fill="none" xmlns="http://www.w3.org/2000/svg">
<path fill-rule="evenodd" clip-rule="evenodd" d="M1.77352 63.9878V134.214H111.734V131.57H6.66853V117.3L111.734 117.325V114.71H6.66853V100.405H111.734V97.8145H6.66853V83.509L111.734 83.5374V80.8905L6.66853 80.9153L6.60646 66.6099L111.725 66.6382V63.9913C111.725 63.9913 34.1764 63.9966 1.76465 63.9913" fill="#4F4F4F"/>
<path fill-rule="evenodd" clip-rule="evenodd" d="M31.337 153.685C34.478 156.031 37.4256 156.3 40.3928 154.947C43.5267 153.519 46.0575 150.755 45.9635 146.755C45.8695 142.754 45.1282 136.462 44.3301 131.397C42.8137 131.572 41.2725 131.714 39.7774 131.767C27.327 132.211 14.9493 119.019 19.7947 101.704C21.774 94.6044 25.9596 88.9885 31.4647 84.8774C33.5628 83.3088 36.6275 80.2777 36.6275 80.2777C36.6275 80.2777 36.2835 75.8073 35.8755 73.2118C34.6926 65.7811 35.6574 58.4495 39.8838 52.0316C40.4886 51.1092 41.0845 50.1673 41.7868 49.3369C44.0375 46.6918 45.6354 46.8069 47.221 49.8964C54.0386 63.1572 51.7134 76.6837 41.3399 86.963C40.7046 87.5793 40.0541 88.1796 39.389 88.7636L41.1466 99.8503C41.6396 99.9335 42.0245 100.042 42.4058 100.049C52.8857 100.316 59.0542 110.486 55.1257 121.048C53.6271 125.085 51.0182 128.226 47.4391 130.163C46.1374 130.869 45.7135 131.014 45.7135 131.014C46.2686 134.989 47.0951 141.449 47.354 145.603C47.9659 152.141 42.8793 157.665 36.3881 157.2C34.0523 157.035 31.6279 156.196 29.5298 155.055C25.7893 153.011 24.6418 148.361 26.481 144.273C27.6675 141.612 29.959 140.256 32.5838 140.66C34.7901 140.996 36.8315 142.995 37.3068 145.288C37.8743 148.044 36.7925 150.59 34.3556 152.099C33.5345 152.602 32.6494 153.005 31.3352 153.685H31.337ZM44.0215 129.403C43.0655 123.063 42.0528 116.921 41.2601 110.753C40.9869 108.632 40.1197 108.391 38.5182 108.867C33.9459 110.22 32.0518 115.868 34.7334 120.404C35.48 121.659 36.4874 122.721 37.5445 124.092C33.3642 122.758 30.319 118.702 30.1913 113.695C30.0299 106.743 34.008 102.825 39.6834 100.273C39.1779 96.9503 38.6724 93.6466 38.0836 89.833C32.3692 94.3672 27.4671 99.0642 24.4113 105.716C21.5168 112.042 21.7616 118.015 26.1724 123.383C30.8954 129.146 36.8847 130.935 44.0144 129.407L44.0215 129.403ZM37.9453 79.0402C42.8971 74.5555 47.1199 70.1701 48.6221 63.6193C48.9165 62.3464 48.6948 60.845 48.4111 59.526C47.8063 56.7393 45.7578 55.7956 43.4681 57.2332C42.5991 57.7785 41.7638 58.6142 41.2317 59.526C37.8318 65.3632 37.3689 71.8007 37.9364 79.0366L37.9453 79.0402ZM42.3597 108.575C43.3724 115.388 44.3425 122.284 45.3357 128.952C50.3105 127.408 52.5683 122.328 51.5609 116.032C50.7114 110.703 47.8311 108.228 42.3597 108.577" fill="#4F4F4F"/>
<path d="M108.845 7.66406L106.432 8.17093L73.9359 14.2534L72.2868 14.5109V41.6933C71.0616 40.9517 69.6575 40.5565 68.2247 40.5498C63.7626 40.5498 60.1007 44.2053 60.1007 48.6597C60.1007 53.1141 63.7626 56.7696 68.2247 56.7696C72.6869 56.7696 76.3488 53.1141 76.3488 48.6597V25.9763L104.783 20.6561V35.6068C103.556 34.8701 102.153 34.4766 100.721 34.4673C96.2588 34.4673 92.5969 38.1229 92.5969 42.5772C92.5969 47.0316 96.2588 50.6872 100.721 50.6872C105.183 50.6872 108.845 47.0316 108.845 42.5772V7.66406ZM104.783 12.5503V16.6052L76.3488 21.9253V17.8704L104.783 12.5503ZM100.721 38.5223C102.988 38.5223 104.783 40.3146 104.783 42.5772C104.783 44.8399 102.988 46.6322 100.721 46.6322C98.4543 46.6322 96.6589 44.8399 96.6589 42.5772C96.6589 40.3146 98.4543 38.5223 100.721 38.5223ZM68.2247 44.6047C70.4914 44.6047 72.2868 46.397 72.2868 48.6597C72.2868 50.9223 70.4914 52.7146 68.2247 52.7146C65.9581 52.7146 64.1627 50.9223 64.1627 48.6597C64.1627 46.397 65.9581 44.6047 68.2247 44.6047Z" fill="#2B64BE"/>
</svg>
