<svg width="149" height="150" viewBox="0 0 149 150" fill="none" xmlns="http://www.w3.org/2000/svg">
<path d="M57 0C25.5502 0 0 25.6301 0 57.1782C0 88.7263 25.5502 114.356 57 114.356C88.4497 114.356 114 88.7263 114 57.1782C114 25.6301 88.4497 0 57 0ZM57 3.57364C70.6372 3.57364 83.0312 8.7304 92.4754 17.1606H21.5211C31.2741 8.40286 43.9066 3.56465 56.9964 3.57364H57ZM22.8606 20.7343H91.143L57.0036 89.2087L22.8606 20.7343ZM17.1071 21.5919V92.7681C8.37667 82.9845 3.55354 70.3125 3.5625 57.1818C3.5625 43.5019 8.70319 31.0692 17.1071 21.5955V21.5919ZM96.8929 21.5919C105.623 31.3755 110.446 44.0475 110.437 57.1782C110.437 70.8581 105.297 83.2908 96.8929 92.7645V21.5919ZM20.6696 24.3079L55.2187 93.6222H20.6696V24.3079ZM93.3304 24.3079V93.6222H58.7812L93.3482 24.3079H93.3304ZM21.5246 97.1958H92.4789C82.7177 105.962 70.0851 110.783 57.0036 110.783C43.9221 110.783 31.2859 105.962 21.5282 97.1958H21.5246Z" fill="#4F4F4F"/>
<path d="M100.675 40.1053V49.876H110.416L139.143 21.0589L129.403 11.2882L100.675 40.1053ZM146.675 13.5029C146.916 13.2619 147.107 12.9755 147.237 12.6603C147.368 12.3451 147.435 12.0072 147.435 11.666C147.435 11.3248 147.368 10.9869 147.237 10.6717C147.107 10.3565 146.916 10.0702 146.675 9.82911L140.597 3.73218C140.357 3.49064 140.072 3.29901 139.757 3.16826C139.443 3.03752 139.106 2.97021 138.766 2.97021C138.426 2.97021 138.089 3.03752 137.775 3.16826C137.461 3.29901 137.175 3.49064 136.935 3.73218L132.182 8.50029L141.922 18.271L146.675 13.5029Z" fill="#4F4F4F"/>
<path d="M100.675 49.8759V40.1052L129.403 11.2881L139.143 21.0588L110.416 49.8759H100.675Z" fill="#2B64BE"/>
<path d="M53.9559 78.0143L128.589 138.268C130.046 139.445 131.072 138.879 130.871 137.015L130.778 136.146L127.841 136.465L127.722 135.353L130.658 135.035L130.423 132.859L127.487 133.178L127.367 132.067L130.304 131.749L130.069 129.572L127.133 129.89L127.013 128.78L129.949 128.462L129.715 126.286L124.195 126.885L124.075 125.773L129.595 125.175L129.341 122.816L126.405 123.135L126.285 122.022L129.221 121.704L128.986 119.528L126.05 119.847L125.93 118.736L128.866 118.418L128.632 116.241L125.696 116.559L125.576 115.448L128.512 115.13L128.277 112.954L122.758 113.553L122.638 112.444L128.158 111.845L127.903 109.484L124.967 109.803L124.848 108.692L127.784 108.374L127.549 106.197L124.613 106.515L124.493 105.404L127.429 105.086L127.195 102.911L124.259 103.23L124.139 102.117L127.075 101.798L126.84 99.6216L121.32 100.22L121.201 99.1113L126.721 98.5126L126.466 96.1519L123.53 96.4704L123.41 95.3601L126.346 95.0416L126.112 92.866L123.176 93.1844L123.056 92.0719L125.992 91.7534L125.757 89.5777L122.821 89.8962L122.702 88.786L125.638 88.4675L125.403 86.2906L119.883 86.8894L119.764 85.7791L125.283 85.1804L125.029 82.8208L122.093 83.1393L121.973 82.0279L124.909 81.7094L124.675 79.5338L121.739 79.8522L121.619 78.7408L124.555 78.4223L124.32 76.2467L121.384 76.5652L121.265 75.4561L124.201 75.1376L123.966 72.9596L118.446 73.5583L118.326 72.4469L123.846 71.8482L123.803 71.4474C123.704 70.5481 123.255 69.7244 122.553 69.1566C121.85 68.5888 120.952 68.3231 120.055 68.4176L54.6878 75.5084C52.8279 75.7101 52.498 76.8393 53.9559 78.0143ZM106.135 85.7658C107.032 85.6714 107.929 85.9366 108.631 86.5034C109.333 87.0701 109.783 87.8925 109.883 88.791L111.188 100.901C111.389 102.767 110.361 103.329 108.905 102.155L93.3351 89.5832C91.8794 88.4069 92.2082 87.2778 94.0681 87.076L106.136 85.767L106.135 85.7658Z" fill="#95BFE6"/>
</svg>
