<svg width="147" height="88" viewBox="0 0 147 88" fill="none" xmlns="http://www.w3.org/2000/svg">
<path d="M16.1604 0C13.867 0 11.8808 1.11629 10.077 2.66146C8.27029 4.20662 6.6065 6.28408 5.13433 8.93642C2.18392 14.2472 0 21.6962 0 30.9885C0 35.7518 1.10412 40.661 3.32758 44.5787C3.81425 45.4364 4.61117 46.0052 5.22862 46.7656C3.577 48.7853 0.854709 52.563 0.854709 52.563L5.23167 56.94C5.23167 56.94 8.249 52.782 10.1744 50.4765C11.3971 50.9996 12.5499 51.7114 13.9765 51.7114C19.1929 51.7114 24.6345 49.4301 29.6593 46.577C31.2744 47.815 33.0933 48.6697 34.9822 48.6697C41.2328 48.6697 45.9839 44.9984 49.3358 41.7317C50.3092 40.7796 50.9631 40.08 51.7114 39.2588C51.6992 40.0922 51.6749 40.8526 51.903 41.826C52.0794 42.562 52.2832 43.4776 53.0436 44.2988C53.804 45.117 55.1698 45.628 56.2739 45.628C58.4943 45.628 59.7779 44.606 61.1223 43.6327C62.4637 42.6594 63.7381 41.4944 65.113 40.3994C67.8778 38.2125 70.8282 36.5 73 36.5V30.4167C68.1759 30.4167 64.4103 33.2697 61.4021 35.6453C59.9786 36.7707 58.695 37.7593 57.6974 38.4953V38.1151C57.7308 37.011 57.8981 35.773 57.6974 34.4104C57.5777 33.5818 57.2502 32.797 56.7453 32.1291C56.1157 31.2379 54.7013 30.4167 53.5151 30.4167C51.8026 30.4167 51.173 31.1528 50.5677 31.6516C49.9594 32.1504 49.5092 32.6614 48.9526 33.2667C47.8363 34.4803 46.504 35.9434 45.0532 37.3547C42.4982 39.8489 39.493 41.7408 36.2141 42.2031C38.3889 40.4572 40.5758 38.7204 42.1088 36.7859C44.1285 34.2431 45.625 31.6516 45.625 28.6099C45.625 26.9005 45.4121 24.5584 44.1042 22.338C42.7962 20.1176 39.9827 18.25 36.5 18.25C32.7588 18.25 29.346 20.0902 27.2807 23.0041C25.2124 25.915 24.3333 29.6441 24.3333 34.0271C24.3333 37.011 25.0116 39.4808 25.9485 41.6313C21.7205 43.8578 17.3375 45.625 13.9734 45.625C19.1169 37.9144 24.3333 27.4115 24.3333 14.6365C24.3333 11.9903 24.3577 8.86342 23.4786 5.98904C23.0376 4.55033 22.338 3.09033 21.1031 1.90104C19.8621 0.714792 18.0371 0 16.1573 0H16.1604ZM16.1604 6.08333C16.7079 6.08333 16.7292 6.18979 16.9208 6.36925C17.1094 6.54567 17.3345 6.98671 17.5839 7.79275C18.0705 9.39875 18.25 12.1058 18.25 14.6365C18.25 25.4131 13.6388 34.8484 9.03071 41.9202C8.92425 41.7378 8.75696 41.7286 8.6505 41.537C7.06883 38.7691 6.08333 34.7419 6.08333 30.9885C6.08333 22.633 8.07867 16.1573 10.4573 11.8808C11.6435 9.74246 12.8663 8.176 13.9734 7.22396C15.0775 6.27192 16.0174 6.08333 16.1604 6.08333ZM36.5 24.3333C38.1881 24.3333 38.4375 24.7379 38.8755 25.474C39.3166 26.21 39.5417 27.5758 39.5417 28.6099C39.5417 29.3703 38.9029 31.1406 37.3547 33.0781C36.0133 34.7663 33.9693 36.5122 31.7489 38.2125C31.2136 36.9867 30.4167 36.0955 30.4167 34.0302C30.4167 30.5018 31.1649 27.9225 32.2234 26.426C33.2789 24.9265 34.4682 24.3333 36.5 24.3333Z" fill="#2B64BE"/>
<path fill-rule="evenodd" clip-rule="evenodd" d="M81.1374 49.7396C80.5568 49.3719 80.0696 48.8742 79.7144 48.2859L72.4946 36.2726C72.0693 35.5671 71.8491 34.757 71.8586 33.9332C71.8681 33.1095 72.1071 32.3047 72.5486 31.6092C72.99 30.9136 73.6166 30.3549 74.358 29.9958C75.0994 29.6366 75.9262 29.4911 76.7456 29.5758L90.6879 31.0079C91.3728 31.0786 92.0318 31.3079 92.6127 31.6776L133.842 57.8726C135.825 59.1334 137.227 61.1304 137.739 63.4246C138.25 65.7188 137.83 68.1222 136.57 70.1064L134.6 73.2066C133.339 75.1904 131.342 76.5922 129.048 77.1037C126.754 77.6153 124.35 77.1947 122.366 75.9345L81.1374 49.7396ZM90.2363 35.418L131.465 61.613C132.457 62.2434 133.158 63.2419 133.414 64.389C133.67 65.5361 133.459 66.7378 132.829 67.7299L130.859 70.8302C130.229 71.822 129.231 72.5229 128.084 72.7787C126.936 73.0345 125.735 72.8242 124.743 72.1941L83.5138 45.9992L76.2941 33.9859L90.2363 35.418Z" fill="#4F4F4F"/>
<path fill-rule="evenodd" clip-rule="evenodd" d="M134.157 56.5271C134.311 56.2866 134.416 56.0182 134.466 55.7375C134.516 55.4568 134.51 55.1691 134.448 54.8911C134.386 54.613 134.269 54.35 134.105 54.1171C133.94 53.8842 133.731 53.686 133.489 53.5339L116.364 42.7426C115.876 42.4348 115.532 41.9465 115.407 41.3851C115.282 40.8238 115.386 40.2354 115.697 39.7494C116.008 39.2634 116.5 38.9195 117.065 38.7935C117.63 38.6676 118.222 38.7697 118.71 39.0776L135.828 49.8791C136.552 50.3358 137.179 50.9302 137.672 51.6282C138.164 52.3263 138.513 53.1145 138.699 53.9476C138.885 54.7807 138.904 55.6426 138.754 56.4838C138.605 57.3251 138.29 58.1293 137.828 58.8505L136.862 60.3663C136.552 60.8522 136.06 61.1961 135.496 61.3224C134.931 61.4487 134.34 61.347 133.852 61.0397C133.364 60.7324 133.019 60.2447 132.894 59.6839C132.768 59.123 132.872 58.5349 133.183 58.049L134.153 56.5323L134.157 56.5271Z" fill="#4F4F4F"/>
<path d="M143.158 70.8576C144.177 71.5182 144.899 72.561 145.166 73.7569C145.432 74.9527 145.222 76.2036 144.58 77.2344L144.477 77.3993C143.854 78.4012 142.872 79.1166 141.736 79.3962C140.601 79.6759 139.4 79.4982 138.383 78.9002L130.998 74.5489L136.132 66.3031L143.158 70.8576Z" fill="#4F4F4F"/>
</svg>
