<svg width="135" height="146" viewBox="0 0 135 146" fill="none" xmlns="http://www.w3.org/2000/svg">
<path d="M52.4123 41.0625C23.4691 41.0625 0 64.5568 0 93.5312C0 122.506 23.4691 146 52.4123 146C57.2459 146 61.1477 142.094 61.1477 137.255C61.1477 134.982 60.2741 132.941 58.8765 131.367C57.537 129.851 56.6635 127.811 56.6635 125.595C56.6635 120.757 60.5653 116.851 65.3989 116.851H75.7066C91.7797 116.851 104.825 103.792 104.825 87.7014C104.825 61.9334 81.3555 41.0625 52.4123 41.0625ZM20.3826 93.5312C15.549 93.5312 11.6472 89.6252 11.6472 84.7865C11.6472 79.9477 15.549 76.0417 20.3826 76.0417C25.2161 76.0417 29.1179 79.9477 29.1179 84.7865C29.1179 89.6252 25.2161 93.5312 20.3826 93.5312ZM37.8533 70.2118C33.0197 70.2118 29.1179 66.3058 29.1179 61.467C29.1179 56.6282 33.0197 52.7222 37.8533 52.7222C42.6869 52.7222 46.5887 56.6282 46.5887 61.467C46.5887 66.3058 42.6869 70.2118 37.8533 70.2118ZM66.9713 70.2118C62.1377 70.2118 58.2359 66.3058 58.2359 61.467C58.2359 56.6282 62.1377 52.7222 66.9713 52.7222C71.8048 52.7222 75.7066 56.6282 75.7066 61.467C75.7066 66.3058 71.8048 70.2118 66.9713 70.2118ZM84.442 93.5312C79.6084 93.5312 75.7066 89.6252 75.7066 84.7865C75.7066 79.9477 79.6084 76.0417 84.442 76.0417C89.2756 76.0417 93.1774 79.9477 93.1774 84.7865C93.1774 89.6252 89.2756 93.5312 84.442 93.5312Z" fill="#4F4F4F"/>
<path d="M127.745 74.3628C127.745 74.3628 131.228 75.4851 133.607 72.8989C135.816 70.5349 134.55 67.531 134.55 67.531C133.205 64.8794 119.086 42.5418 109.85 34.3285C105.628 30.6314 93.2882 25.5875 88.9063 29.9199C84.737 34.0293 89.95 47.2705 93.6064 50.846C102.681 59.7201 125.04 73.1389 127.745 74.3628ZM65.4974 1.21217C72.4326 11.484 80.3677 7.35155 85.8282 15.0179C88.7134 19.0457 88.6839 24.7044 84.8128 28.5453C81.9624 31.3592 73.7534 32.2508 69.8273 28.1099C63.4303 21.3374 62.8085 10.6902 65.4974 1.21217Z" fill="#4F4F4F"/>
<path d="M65.4974 1.21212C72.4327 11.484 80.3677 7.3515 85.8282 15.0179C88.7134 19.0457 88.684 24.7043 84.8128 28.5452C81.9624 31.3592 73.7534 32.2508 69.8273 28.1099C63.4303 21.3374 62.8085 10.6901 65.4974 1.21212Z" fill="#F76137"/>
<ellipse cx="19.1419" cy="84.8624" rx="10.0267" ry="10.0375" fill="#2B64BE"/>
<ellipse cx="37.3723" cy="61.1376" rx="10.0267" ry="10.0375" fill="#F76137"/>
<ellipse cx="66.5409" cy="61.1376" rx="10.0267" ry="10.0375" fill="#ECF1FD"/>
<ellipse cx="84.7712" cy="84.8624" rx="10.0267" ry="10.0375" fill="#95BFE6"/>
</svg>
